<svg xmlns="http://www.w3.org/2000/svg" viewBox="0 0 677.6681818567 197.6439001553"><g style="isolation:isolate;"><g id="b"><g id="c"><g id="d"><path id="e" d="m256.5449620089,138.4721582173c-2.054381097,0-4.1337778434-.0751388154-6.2381902392-.225420719s-4.0086055928-.3506891096-5.7125774547-.6012216181v-10.1466840963c1.7538172898.2507205157,3.6829321326.4511277217,5.7873445284.6012216181,2.104226525.2005909404,4.0583570172.3008842742,5.8623914766.3008885471,4.8605434537-.0000042729,8.3680861662-.8518908591,10.5226238644-2.5556768501,2.204568997-1.6534726813,3.3069026338-4.2840148817,3.3069923645-7.8916180552v-3.607744179c-1.3027835717,2.6054774127-3.1568087374,4.6097332073-5.5620626784,6.0127673838-2.3550367714,1.3529088741-5.1359506061,2.0293633112-8.342741504,2.0293633112-3.7577932099,0-7.014660272-.8768616431-9.7706054591-2.6305849293-2.7555723772-1.8039425922-4.8847664816-4.2591338284-6.3875855176-7.3655822543-1.5028179679-3.1064462895-2.2542274859-6.5888772124-2.2542274859-10.4472949053v-1.7288956441c0-3.9082609844.8016277559-7.3905989719,2.4048832676-10.4470150308,1.6036283216-3.1067272322,3.8334009753-5.5619686748,6.6893158245-7.3657237939,2.9055733382-1.8039425922,6.262317127-2.7058676877,10.0702356393-2.7057742182,3.5574778711,0,6.6140360037.8517992589,9.169665852,2.5553977768,2.5556298483,1.703599052,4.4847468275,4.1588404946,5.7873466648,7.365724328v-8.718680738h9.5451847402v36.3023086351c.0000042729,7.6162130393-2.0543340952,13.052772318-6.1630022856,16.3096863819-4.0587351682,3.3069496356-10.2970642764,4.9604693187-18.7149915976,4.9605590495Zm3.3823213236-26.2302490048c2.7559451871,0,5.0858765784-.9019242943,6.9897877645-2.7057728829,1.9541304922-1.8537858837,2.9311957383-4.4342006452,2.9311957383-7.741242148v-2.1804399728c0-2.1544436946-.4760515039-3.9582922832-1.428145966-5.4115479022-.84907075-1.4535119926-2.1026263267-2.6286471725-3.6078851844-3.3821813863-1.4781088985-.7953433992-3.1315516696-1.2086795228-4.8100464097-1.2024410997-3.056602998,0-5.5369060236,1.0522991333-7.4409112134,3.1568995364-1.8537880202,2.0541012226-2.780680962,4.809952406-2.780680962,8.2675556869,0,3.5073525687.9520944621,6.2632058886,2.8562876591,8.2675556869,1.9039133226,1.9544082302,4.3340483169,2.9316144818,7.2903985736,2.9316144818Z" style="fill:#fff;"></path><path id="f" d="m311.152430424,123.5152888424c-4.8097665352,0-8.91861846-.9770652461-12.3265643201-2.9311957383-3.3571668052-1.9541304922-5.9126107826-4.5095766061-7.6663340688-7.6663340688-1.7522181598-3.201577969-2.6575607681-6.7976891981-2.6301683222-10.4472949053v-1.7286136331c-.0000010682-3.8584155564.9019242943-7.3909269164,2.7057728829-10.5975308753,1.85416083-3.2571960748,4.4597760435-5.8377021694,7.816848845-7.7415220224,3.4070100967-1.9541310263,7.4406313389-2.9311960053,12.1008637267-2.9311960053,4.6586407353,0,8.6919393742.977064979,12.0998830979,2.9311960053,3.4078497201,1.9041926629,6.0131391255,4.4846998257,7.8158682162,7.7415220224,1.8550976617,3.2066968943,2.7825930814,6.7392071861,2.7824990778,10.5975308753v1.7284747641c.0251929744,3.659040254-.9081007605,7.2609070692-2.7070312497,10.4472927688-1.7523217774,3.1568514663-4.3072551442,5.7122975802-7.6647958275,7.6663340688-3.3575364104,1.9540364886-7.4664866117,2.9311487365-12.3268420582,2.9313367437Zm0-10.1464063582c3.4562017721,0,6.0866499688-1.1023293639,7.8913360443-3.3069945009,1.8550933888-2.2549741739,2.7825930814-5.0609506598,2.7824990778-8.4179294577,0-3.4575092772-.9527012128-6.3135640637-2.8581079113-8.5681654277-1.8520169062-2.3049136055-4.4573020387-3.4574163418-7.8158682162-3.4575092772-3.3566049198,0-5.9618921888,1.1525038045-7.8158682162,3.4575092772-1.8550015217,2.2546953676-2.7823153434,5.1107501541-2.7819414653,8.5681654277,0,3.3571668052.9021101651,6.1631432911,2.7063326318,8.4179315941,1.8038464521,2.204568997,4.4343886525,3.3069026338,7.8916180552,3.3069966374v-.0000042729Z" style="fill:#fff;"></path><path id="g" d="m342.1682218679,122.3881745653v-55.6183760383h20.3689759578c4.9607940586,0,9.2952119807.7264868041,13.0032537663,2.1794604122s6.7886776677,3.4321667515,9.2419119191,5.9375794302c2.4707317464,2.4488342403,4.3924181655,5.3951229033,5.6375305065,8.6433523131,1.2583882182,3.2341075,1.8959422415,6.6764223713,1.8792694148,10.1466840963v1.653566685c-.002106536,3.3708699716-.6396648323,6.7111289409-1.8792694148,9.8457955492-1.2800218731,3.2525471677-3.1966748248,6.2167296364-5.6375305065,8.7186791357-2.4531359749,2.6054774127-5.5338231316,4.6848720226-9.2420529245,6.2381923757-3.7100030433,1.503378785-8.0444166925,2.2550660411-13.0032537663,2.2550660411h-20.3688349524Zm21.045665404-44.1184572599h-8.7191000156v32.6188172877h8.7192410211c5.1601757704,0,9.2186716565-1.5031437759,12.1754919314-4.5094356006,2.9547607407-3.0063858284,4.4331730145-6.9648639823,4.4352282759-11.8754408713,0-5.1608273865-1.478408001-9.1442784609-4.4352282759-11.950346814-2.9577517654-2.8560067164-7.0162989263-4.2840586788-12.1756329369-4.2841516142v.0005576125Z" style="fill:#fff;"></path><path id="h" d="m418.3237453005,123.5152888424c-3.507540576,0-6.6143586071-.6012216181-9.3204605027-1.8036605813-2.6556005786-1.2027209741-4.8852343633-2.8061623567-6.6888949446-4.8103241477-1.7733038162-2.0023586303-3.1501878904-4.3232827641-4.057470392-6.8394097208-.8947736086-2.509019-1.3525819978-5.1529182624-1.3535177613-7.816709976v-1.5033339196c-.0034119047-2.6887197687.454398621-5.3581046987,1.3535156249-7.8920367987.8840166016-2.5270324467,2.2634430469-4.8522412235,4.057470392-6.8394107891,1.8241127815-2.0182553929,4.0514199761-3.6312952944,6.5379614249-4.7348589902,2.6072485266-1.2024416338,5.6143329729-1.8036621836,9.0212512024-1.8036621836,4.4079244925,0,8.11601328,1.0021278973,11.1242620895,3.0063836919,2.9960838844,1.8896151559,5.4137847614,4.5679881154,6.9878286433,7.741242148,1.6067956032,3.2199044051,2.4307673824,6.7736488364,2.4048821994,10.3721080199v4.0587308953h-30.1395846216c.4018399063,2.8057906151,1.4049014306,5.0355184033,3.009184573,6.6891769555,1.6521651762,1.6033516518,4.0066934734,2.4050702067,7.063572073,2.4051642103,2.1540719529,0,3.9325737429-.4009084157,5.3355181887-1.2027209742,1.4532534826-.8516601229,2.4311134867-1.9289268355,2.9335757394-3.2318065473h11.0450170244c-.9003839165,4.2088247916-3.0797086644,7.6411325486-6.5379614249,10.296918998-3.4074737055,2.6054731398-7.6661930633,3.9082097097-12.7761495277,3.9082097097Zm-.4501449564-34.2728005797c-2.6072506631.0000010682-4.7371935918.7514084498-6.3898245133,2.2542274859-1.6043750096,1.453159479-2.6316125599,3.5576199448-3.0817105145,6.3133771246h18.4898464802c-.4013698881-2.7556653126-1.378204398-4.8601247103-2.9304949839-6.3133781928-1.5047760209-1.5027239642-3.5340496013-2.2541334823-6.0878164684-2.2542264177Z" style="fill:#fff;"></path><path id="i" d="m461.2431135449,123.3651928096c-5.8641668634,0-10.4493480302-1.2025329669-13.7555499095-3.6076031735-3.3078811261-2.4052582139-5.0611813959-5.7875303992-5.2599093552-10.1468251017h10.6708975085c.1510296598,1.3027857082.9274548272,2.4802602967,2.3292755023,3.5324173564,1.4049014306,1.0021300337,3.4845331861,1.5032377796,6.2388909936,1.5033317832,2.0544751007,0,3.7836036173-.3507788404,5.1873855501-1.0523450669,1.4018206751-.7015619536,2.1027801508-1.753770288,2.1028741545-3.1566185937,0-1.2027209741-.5257067882-2.1548154362-1.5771203645-2.8562876591-1.0513195727-.7516872561-2.9304949839-1.2777700588-5.6375305065-1.5782398623l-3.2327893126-.2997733221c-4.9607940586-.5513740537-8.6930118702-1.9293477154-11.1966512985-4.1339167124-2.4562210033-2.204568997-3.6836777524-5.0856864347-3.6823723837-8.6433523131,0-2.9061330871.7261118577-5.3363118785,2.1783398461-7.2905363744,1.5042205448-1.9545978398,3.5334919888-3.4328215723,6.0878164684-4.434669061,2.5558178555-1.0021276302,5.4873874719-1.5031451112,8.7947088492-1.5030519087,5.3112011573.0000002671,9.5701085224,1.1774724521,12.7767092766,3.5324168222,3.2568200603,2.3049125372,4.985948577,5.6620782742,5.1873855501,10.0714972109h-10.6745401494c-.1993774389-1.3030645144-.9263331929-2.430645605-2.1808587163-3.3827411353-1.2024389632-.9520955303-2.9557435059-1.4281427613-5.2599136281-1.4281438296-1.8549993852.0000010682-3.3333625208.350782045-4.4350872704,1.0523461351s-1.6524450507,1.6536606886-1.6521673127,2.8562887273c0,1.1523168655.4763741073,2.0291774404,1.4291244584,2.6305849293.9527482146.6014074889,2.5056476878,1.0272824157,4.6586898736,1.2776290533l3.2327850397.300610809c5.0091461106.5507224376,8.9175481004,1.9788662671,11.7252059695,4.2844336251,2.8550741576,2.2546964359,4.2832201237,5.2610779913,4.2844336251,9.0191510757,0,4.1589793636-1.6536094139,7.441005217-4.9608410604,9.8460754237-3.3072316465,2.4050702066-7.7669564153,3.6075091699-13.379191398,3.6073211626Z" style="fill:#fff;"></path><path id="j" d="m486.6212345451,122.0877068982v-54.8670637286h12.0244131333v33.2208763927l14.9579910092-19.5417749401h12.6256368879l-13.5290075563,17.5873175716,16.4595025402,23.6006447044h-13.5288665508l-13.0003140162-19.2411641311h-3.9849401775v19.2411641311h-12.0244152698Z" style="fill:#fff;"></path><path id="k" d="m534.1025415572,122.0877068982v-45.9980076174h-4.8852343633v-8.8690561112h16.9887579656v54.8670637286h-12.1035236023Z" style="fill:#fff;"></path><path id="l" d="m575.3994326828,123.5152888424c-3.5076345796,0-6.6144547472-.6012216181-9.3204605027-1.8036605813-2.6556027151-1.2027209741-4.8852322268-2.8061623567-6.6888949446-4.8103241477-1.7732867247-2.002371449-3.1501707989-4.3232913099-4.057470392-6.8394097208-.8948077918-2.5090083177-1.3526183174-5.1529139895-1.3535177613-7.816709976v-1.5033339196c-.0034460878-2.6887240416.4543644378-5.3581132445,1.3535156249-7.8920367987.8840336932-2.5270239009,2.263458002-4.8522294731,4.057470392-6.8394107891,1.8240657796-2.0182452448,4.0513259725-3.6312856804,6.5378204194-4.7348589902,2.6073446667-1.2024416338,5.6144782513-1.8036621836,9.0213922079-1.8036621836,4.4080184961,0,8.1150347876,1.0021278973,11.1210446014,3.0063836919,2.997771677,1.8885629561,5.4167672404,4.5671367415,6.9910461314,7.741242148,1.6068169677,3.2198958594,2.4307930198,6.7736467,2.4048821994,10.3721080199v4.0587308953h-30.1395867581c.4018399063,2.8057906151,1.4038759364,5.0355184033,3.0061038174,6.6891769555,1.6555279427,1.6033516518,4.0110283229,2.4050702067,7.0665139595,2.4051642103,2.1540719529,0,3.9325737429-.4009084157,5.3355181887-1.2027209742,1.453159479-.8516601229,2.429989716-1.9289268355,2.9304949839-3.2318065473h11.0485165234c-.9003796436,4.2088247916-3.0797043915,7.6411325486-6.5379614249,10.296918998-3.4077557164,2.6054731398-7.666564805,3.9082097097-12.7764272657,3.9082097097Zm-.4501449564-34.2728005797c-2.6073446667.0000010682-4.7372875955.7514084498-6.3898245133,2.2542274859-1.6042831424,1.453159479-2.6315206927,3.5576199448-3.081712651,6.3133771246h18.4898486166c-.4018441791-2.7556653126-1.3787171451-4.8601247103-2.9306359894-6.3133781928-1.5044982828-1.5027239642-3.5337248615-2.2541334823-6.087675463-2.2542264177Z" style="fill:#fff;"></path><path id="m" d="m618.3157244445,123.3651928096c-5.8610882443,0-10.4452866458-1.2025329669-13.752608023-3.6076031735-3.3073171043-2.4050702067-5.0616022759-5.7872953901-5.2628512417-10.1466840963h10.67453374c.1510296598,1.3027857082.9274996926,2.4802560238,2.3294143713,3.5324173564,1.4048074269,1.0021257609,3.4843900442,1.5032377795,6.2387521246,1.5033317832,2.0544751007,0,3.7835993445-.3507831133,5.1873855501-1.0523450669,1.4018206751-.7015619536,2.1027801508-1.753770288,2.1028741545-3.1566185937,0-1.2027209742-.5257067882-2.1548175727-1.5771203645-2.8562876591-1.0513152998-.7516893925-2.9304949839-1.2777679223-5.6375305065-1.5782398623l-3.2334857941-.2999143276c-4.9607940586-.5513740537-8.6930097337-1.9293477154-11.1966512985-4.1339167124-2.4562210033-2.204568997-3.6836777524-5.0856864347-3.6823723837-8.6433523131.0000021364-2.9061330871.7261139942-5.3363118785,2.1783398461-7.2905363744,1.5042162719-1.9545978398,3.5333018451-3.4328215723,6.0872545831-4.434669061,2.5559118592-1.0021276302,5.4874793391-1.5031451112,8.7947067127-1.5030519087,5.3112054302.0000002671,9.5701042495,1.1774724521,12.7767092766,3.5324168222,3.2568243332,2.3049125372,4.9849700846,5.6620782742,5.1844415271,10.0714972109h-10.6708910991c-.2024624673-1.3027857082-.9295976828-2.4301798597-2.1814184652-3.3821813863-1.2024389632-.9520955303-2.9557435059-1.4281448978-5.2599093552-1.4281438296-1.8549993852-.0000010682-3.3333646573.350782045-4.4350872704,1.0523461351-1.101726886.7015640901-1.6524471871,1.6536606886-1.6521651762,2.8562887274,0,1.1523168655.4763292419,2.0291774404,1.4289834529,2.6305849293.9526584839.6014074889,2.5055515477,1.0272824157,4.65869201,1.2776290533l3.2326483072.300610809c5.0091461106.5507224376,8.9175481004,1.9788662671,11.7252059695,4.2844336251,2.8551681613,2.2546942994,4.2833141273,5.2610779913,4.2844336251,9.0191510757,0,4.1589793636-1.6536094139,7.4410009441-4.9608410604,9.8460754237-3.3072316465,2.4050702067-7.7677084444,3.6073254355-13.3814432123,3.6067614137Z" style="fill:#fff;"></path><path id="n" d="m659.3285579468,123.3651928096c-5.8609899678,0-10.4451499132-1.2025329669-13.752469154-3.6076031735-3.3073213772-2.4050702067-5.0616514141-5.7872953901-5.2629922472-10.1466840963h10.6739761276c.1509356562,1.3027857082.9273159582,2.4802560238,2.3291366333,3.5324173564,1.4019146787,1.0021257609,3.4815912996,1.5032377795,6.2390298626,1.5033317832,2.054381097,0,3.7824798466-.3507831133,5.1843047946-1.0523450669,1.4049014306-.7015619536,2.1068351259-1.753770288,2.1058139046-3.1566185937-.0000042729-1.2027209742-.5257067882-2.1548175727-1.5771203645-2.8562876591-1.0547720699-.7516893925-2.933951754-1.2777679223-5.6375305065-1.5782398623l-3.2326440343-.2999143276c-4.9607940586-.5513740537-8.6939903626-1.9293477154-11.1995910485-4.1339167124-2.4532342514-2.204568997-3.6806931369-5.0856864347-3.6823723837-8.6433523131-.0000021364-2.9061330871.727094623-5.3363118785,2.1812795962-7.2905363744,1.5012316565-1.9545978398,3.5303172297-3.4328215723,6.0872545831-4.434669061,2.5569330805-1.0018477558,5.487522068-1.5028652367,8.7917669626-1.5030519087,5.3112011573.0000002671,9.5711340166,1.1774724521,12.7797900321,3.5324168222,3.2569183368,2.3049125372,4.9850640882,5.6620782742,5.1844458,10.0714972109h-10.6711773829c-.2019027184-1.3030645144-.928995205-2.430645605-2.1812774597-3.3827411353-1.2024432361-.9520955303-2.9557392331-1.4281427613-5.2599093552-1.4281438296-1.8549993852.0000010682-3.3333603844.350782045-4.4350872704,1.0523461351-1.1017226131.7015640901-1.6524471871,1.6536606886-1.6521651762,2.8562887273,0,1.1523168655.4753464767,2.0291774404,1.4260437029,2.6305849293.9506929533.6014074889,2.5046200571,1.0272824157,4.6617727656,1.2776290533l3.2297042842.300610809c5.012508877.5507224376,8.9209108668,1.9788662671,11.7252059695,4.2844336251,2.8580651824,2.2546964359,4.2862068755,5.2610779913,4.2844336251,9.0191510757,0,4.1589793636-1.653566685,7.441005217-4.9607000549,9.8460754237-3.3058344106,2.4046001885-7.7654779945,3.6070434246-13.3789222057,3.6073211626Z" style="fill:#fff;"></path></g><g id="o"><path d="m.5,98.8219500776c0,54.5778358234,44.2440991752,98.8219500776,98.8219500776,98.8219500776v-98.8219500776H.5Z" style="fill:#2e2b81;"></path><g style="mix-blend-mode:multiply; opacity:.2;"><path d="m99.3219500776,0C44.7440991752,0,.5,44.2440840961.5,98.8219500776h98.8219500776V0Z"></path><path d="m99.8219500776,0C45.2440991752,0,1,44.2440840961,1,98.8219500776h98.8219500776V0Z"></path></g><g style="mix-blend-mode:multiply; opacity:.2;"><path d="m98.8219500776,0C44.2440991752,0,0,44.2440840961,0,98.8219500776h98.8219500776V0Z"></path></g><path d="m99.3219500776,0C44.7440991752,0,.5,44.2440840961.5,98.8219500776h98.8219500776V0Z" style="fill:#fd187e;"></path><path d="m99.3219500776,197.6439001553c54.5778358234,0,98.8219500776-44.2441142542,98.8219500776-98.8219500776h-98.8219500776v98.8219500776Z" style="fill:#1de5f4;"></path><circle cx="148.7329251164" cy="49.4109750388" r="49.4109750388" style="fill:#8ff925;"></circle></g></g></g></g></svg>